
<svg xmlns="http://www.w3.org/2000/svg" height="512px" viewBox="0 -42 512 512" width="512px">
        <path d="m297.910156 381.015625c-.648437 0-1.300781-.070313-1.949218-.199219-.640626-.132812-1.269532-.320312-1.871094-.570312-.609375-.25-1.191406-.5625-1.730469-.921875-.550781-.359375-1.058594-.777344-1.519531-1.238281-.460938-.472657-.878906-.980469-1.238282-1.519532-.359374-.550781-.671874-1.132812-.921874-1.730468-.25-.601563-.4375-1.230469-.570313-1.871094-.128906-.648438-.199219-1.300782-.199219-1.960938 0-.648437.070313-1.300781.199219-1.949218.132813-.640626.320313-1.269532.570313-1.867188.25-.601562.5625-1.183594.921874-1.730469.359376-.542969.777344-1.050781 1.238282-1.519531.460937-.460938.96875-.882812 1.519531-1.242188.539063-.359374 1.121094-.667968 1.730469-.917968.601562-.25 1.230468-.441406 1.871094-.570313 3.25-.652343 6.699218.410157 9.027343 2.730469.460938.46875.871094.976562 1.242188 1.519531.359375.550781.667969 1.128907.917969 1.730469.25.597656.441406 1.226562.570312 1.867188.128906.648437.191406 1.300781.191406 1.949218 0 .660156-.0625 1.3125-.191406 1.960938-.128906.640625-.320312 1.269531-.570312 1.871094-.25.601562-.558594 1.179687-.917969 1.730468-.371094.539063-.78125 1.046875-1.242188 1.519532-1.867187 1.859374-4.4375 2.929687-7.078125 2.929687zm0 0"
              />
        <path d="m84.996094 228.390625c-1.164063 0-2.34375-.203125-3.496094-.632813-5.175781-1.933593-7.804688-7.691406-5.871094-12.867187 22.699219-60.835937 76.53125-104.945313 140.492188-115.113281 5.449218-.871094 10.578125 2.855468 11.445312 8.308594.867188 5.453124-2.851562 10.578124-8.304687 11.445312-56.855469 9.035156-104.710938 48.257812-124.898438 102.355469-1.5 4.019531-5.3125 6.503906-9.367187 6.503906zm0 0"
             />
        <path d="m512 344.429688c0-15.90625-10.203125-29.476563-24.410156-34.5v-32.210938c0-58.789062-22.894532-114.058594-64.460938-155.625-36.382812-36.382812-83.257812-58.457031-133.796875-63.402344 3.480469-5.816406 5.484375-12.617187 5.484375-19.875 0-21.40625-17.414062-38.816406-38.816406-38.816406s-38.816406 17.410156-38.816406 38.816406c0 7.257813 2.003906 14.058594 5.484375 19.875-50.539063 4.945313-97.414063 27.019532-133.796875 63.402344-41.566406 41.566406-64.460938 96.835938-64.460938 155.625v32.210938c-14.207031 5.027343-24.410156 18.59375-24.410156 34.5 0 19.265624 14.972656 35.097656 33.894531 36.480468l18.277344 28.605469c7.351563 11.503906 19.894531 18.375 33.550781 18.375h340.554688c13.65625 0 26.199218-6.871094 33.550781-18.375l18.277344-28.605469c18.921875-1.378906 33.894531-17.214844 33.894531-36.480468zm-256-324.429688c10.378906 0 18.816406 8.441406 18.816406 18.816406s-8.4375 18.816406-18.816406 18.816406-18.816406-8.441406-18.816406-18.816406 8.4375-18.816406 18.816406-18.816406zm-211.589844 257.71875c0-110.328125 89.761719-200.089844 200.085938-200.089844h23.007812c110.324219 0 200.085938 89.761719 200.085938 200.089844v30.128906h-423.179688zm431.003906 83.292969h-31.800781c-5.519531 0-10 4.476562-10 10 0 5.519531 4.480469 10 10 10h10.695313l-11.335938 17.734375c-3.65625 5.726562-9.898437 9.144531-16.695312 9.144531h-340.554688c-6.796875 0-13.039062-3.417969-16.695312-9.144531l-11.335938-17.734375h193.816406c5.523438 0 10-4.480469 10-10 0-5.523438-4.476562-10-10-10h-214.921874c-9.144532 0-16.585938-7.441407-16.585938-16.582031 0-9.144532 7.441406-16.582032 16.585938-16.582032h438.828124c9.144532 0 16.585938 7.4375 16.585938 16.582032 0 9.140624-7.441406 16.582031-16.585938 16.582031zm0 0"
              />
</svg>
