<?xml version="1.0" encoding="utf-8"?>
<!-- Generator: Adobe Illustrator 23.1.0, SVG Export Plug-In . SVG Version: 6.00 Build 0)  -->
<svg version="1.1" id="Capa_1" xmlns="http://www.w3.org/2000/svg" xmlns:xlink="http://www.w3.org/1999/xlink" x="0px" y="0px"
	 viewBox="0 0 512 512" style="enable-background:new 0 0 512 512;" xml:space="preserve">
<style type="text/css">
	.st0{fill:#232323;}
</style>
<g>
	<g>
		<g>
			<ellipse class="st0" cx="256.4" cy="255.2" rx="75.8" ry="73.4"/>
			<path class="st0" d="M373.6,259.3c0,62.8-52.5,113.6-117.3,113.6S139.1,322,139.1,259.3c0-11.2,1.7-22.1,4.8-32.4h-34.7v159.4
				c0,8.3,6.7,15,15,15H387c8.3,0,15-6.7,15-15V226.9h-33.2C371.9,237.2,373.6,248,373.6,259.3z"/>
			<path class="st0" d="M342.2,183.9h42.6c9.3,0,17-7.6,17-17v-40.7c0-9.3-7.6-17-17-17h-42.6c-9.3,0-17,7.6-17,17v40.7
				C325.2,176.3,332.8,183.9,342.2,183.9z"/>
			<path class="st0" d="M256,0C114.6,0,0,114.6,0,256s114.6,256,256,256s256-114.6,256-256S397.4,0,256,0z M396.2,444.6H115.8
				c-26.6,0-48.4-19.7-48.4-48.4V115.8c0-28.7,21.8-48.4,48.4-48.4h280.4c26.6,0,48.4,19.7,48.4,48.4v280.4
				C444.6,424.9,422.9,444.6,396.2,444.6z"/>
		</g>
	</g>
</g>
</svg>
