<?xml version="1.0" encoding="utf-8"?>
<!-- Generator: Adobe Illustrator 23.1.0, SVG Export Plug-In . SVG Version: 6.00 Build 0)  -->
<svg version="1.1" id="Bold" xmlns="http://www.w3.org/2000/svg" xmlns:xlink="http://www.w3.org/1999/xlink" x="0px" y="0px"
	 viewBox="0 0 512 512" style="enable-background:new 0 0 512 512;" xml:space="preserve">
<style type="text/css">
	.st-tel0{fill:#1E1E1E;}
	.st-tel1{fill:#2B98D3;}
	.st-tel2{fill:#FFFFFF;}
</style>
<g>
	<path class="st-tel0" d="M256,512c141.4,0,256-114.6,256-256S397.4,0,256,0S0,114.6,0,256S114.6,512,256,512z M117.1,250.5L364,155.3
		c11.5-4.1,21.5,2.8,17.7,20.1l0,0l-42,198c-3.1,14-11.5,17.5-23.1,10.8l-64-47.2l-30.9,29.7c-3.4,3.4-6.3,6.3-12.9,6.3l4.5-65.1
		L332,200.8c5.2-4.5-1.2-7.1-8-2.6l-146.6,92.3l-63.2-19.7C100.5,266.4,100.2,257.1,117.1,250.5L117.1,250.5z"/>
</g>
<path class="st1" d="M491.6,512H220.4c-11.3,0-20.4-9.1-20.4-20.4v-32.2c0-11.3,9.1-20.4,20.4-20.4h271.2c11.3,0,20.4,9.1,20.4,20.4
	v32.2C512,502.9,502.9,512,491.6,512z"/>
<g>
	<path class="st-tel2" d="M244,493.7h-8.5v-32.9h-10.8v-7h30.1v7H244V493.7z"/>
	<path class="st-tel2" d="M274.1,494.3c-4.9,0-8.8-1.4-11.5-4.1s-4.1-6.5-4.1-11.5c0-5.1,1.3-9.1,3.8-11.9c2.6-2.8,6.1-4.2,10.6-4.2
		c4.3,0,7.7,1.2,10.1,3.7c2.4,2.5,3.6,5.8,3.6,10.2v4h-19.7c0.1,2.4,0.8,4.2,2.1,5.5c1.3,1.3,3.1,2,5.5,2c1.8,0,3.6-0.2,5.2-0.6
		c1.6-0.4,3.3-1,5.1-1.8v6.4c-1.5,0.7-3,1.3-4.7,1.6C278.5,494.1,276.5,494.3,274.1,494.3z M272.9,468.6c-1.8,0-3.1,0.6-4.1,1.7
		c-1,1.1-1.6,2.7-1.7,4.8h11.7c0-2.1-0.6-3.6-1.6-4.8C276.1,469.1,274.7,468.6,272.9,468.6z"/>
	<path class="st-tel2" d="M301.7,493.7h-8.3v-42.5h8.3V493.7z"/>
	<path class="st-tel2" d="M324.2,494.3c-4.9,0-8.8-1.4-11.5-4.1c-2.8-2.7-4.1-6.5-4.1-11.5c0-5.1,1.3-9.1,3.8-11.9
		c2.6-2.8,6.1-4.2,10.6-4.2c4.3,0,7.7,1.2,10.1,3.7c2.4,2.5,3.6,5.8,3.6,10.2v4H317c0.1,2.4,0.8,4.2,2.1,5.5s3.1,2,5.5,2
		c1.8,0,3.6-0.2,5.2-0.6c1.6-0.4,3.3-1,5.1-1.8v6.4c-1.5,0.7-3,1.3-4.7,1.6C328.6,494.1,326.6,494.3,324.2,494.3z M323,468.6
		c-1.8,0-3.1,0.6-4.1,1.7c-1,1.1-1.6,2.7-1.7,4.8h11.7c0-2.1-0.6-3.6-1.6-4.8C326.2,469.1,324.8,468.6,323,468.6z"/>
	<path class="st-tel2" d="M370,463.2v4.2l-4.8,1.2c0.9,1.4,1.3,2.9,1.3,4.6c0,3.3-1.1,5.8-3.4,7.7c-2.3,1.8-5.5,2.7-9.5,2.7l-1.5-0.1
		l-1.2-0.1c-0.9,0.7-1.3,1.4-1.3,2.2c0,1.2,1.5,1.8,4.6,1.8h5.2c3.3,0,5.9,0.7,7.7,2.2s2.6,3.5,2.6,6.3c0,3.6-1.5,6.3-4.5,8.3
		s-7.2,2.9-12.8,2.9c-4.3,0-7.5-0.7-9.8-2.2c-2.2-1.5-3.4-3.6-3.4-6.2c0-1.8,0.6-3.4,1.7-4.6c1.1-1.2,2.8-2.1,5-2.6
		c-0.9-0.4-1.6-1-2.2-1.8c-0.6-0.8-1-1.7-1-2.6c0-1.2,0.3-2.1,1-2.9c0.7-0.8,1.6-1.5,2.9-2.3c-1.6-0.7-2.9-1.8-3.8-3.3
		c-0.9-1.5-1.4-3.3-1.4-5.4c0-3.3,1.1-5.9,3.2-7.7c2.2-1.8,5.3-2.7,9.3-2.7c0.9,0,1.9,0.1,3,0.2c1.2,0.2,1.9,0.3,2.3,0.3H370z
		 M346.4,498c0,1.1,0.6,2,1.7,2.7s2.6,1,4.6,1c3,0,5.3-0.4,7-1.2c1.7-0.8,2.5-1.9,2.5-3.4c0-1.1-0.5-1.9-1.5-2.4
		c-1-0.4-2.5-0.7-4.6-0.7h-4.3c-1.5,0-2.8,0.4-3.8,1.1C346.9,495.9,346.4,496.9,346.4,498z M349.4,473.2c0,1.7,0.4,3,1.1,3.9
		c0.8,1,1.9,1.4,3.5,1.4c1.6,0,2.7-0.5,3.4-1.4c0.7-1,1.1-2.3,1.1-3.9c0-3.7-1.5-5.5-4.5-5.5C351,467.7,349.4,469.5,349.4,473.2z"/>
	<path class="st-tel2" d="M392,462.7c1.1,0,2.1,0.1,2.8,0.2l-0.6,7.8c-0.7-0.2-1.5-0.3-2.5-0.3c-2.7,0-4.7,0.7-6.2,2
		c-1.5,1.4-2.2,3.3-2.2,5.7v15.5H375v-30.5h6.3l1.2,5.1h0.4c0.9-1.7,2.2-3.1,3.8-4.1C388.4,463.2,390.1,462.7,392,462.7z"/>
	<path class="st-tel2" d="M419.7,493.7l-1.6-4.1h-0.2c-1.4,1.8-2.8,3-4.3,3.7c-1.5,0.7-3.4,1-5.8,1c-2.9,0-5.2-0.8-6.9-2.5
		s-2.5-4.1-2.5-7.2c0-3.2,1.1-5.6,3.4-7.2c2.3-1.5,5.7-2.4,10.2-2.6l5.3-0.2v-1.3c0-3.1-1.6-4.6-4.7-4.6c-2.4,0-5.3,0.7-8.6,2.2
		l-2.8-5.6c3.5-1.8,7.4-2.8,11.7-2.8c4.1,0,7.2,0.9,9.4,2.7c2.2,1.8,3.3,4.5,3.3,8.1v20.3H419.7z M417.3,479.6l-3.2,0.1
		c-2.4,0.1-4.2,0.5-5.4,1.3s-1.8,2-1.8,3.7c0,2.3,1.3,3.5,4,3.5c1.9,0,3.5-0.6,4.6-1.7c1.2-1.1,1.7-2.6,1.7-4.4V479.6z"/>
	<path class="st-tel2" d="M461.4,493.7h-8.3v-17.8c0-2.2-0.4-3.9-1.1-5c-0.7-1.1-1.9-1.7-3.5-1.7c-2.1,0-3.7,0.8-4.6,2.3
		c-1,1.6-1.4,4.1-1.4,7.7v14.4h-8.3v-30.5h6.4l1.1,3.9h0.5c0.8-1.4,2-2.5,3.5-3.3c1.5-0.8,3.3-1.2,5.3-1.2c4.6,0,7.7,1.5,9.3,4.5
		h0.7c0.8-1.4,2-2.5,3.6-3.3c1.6-0.8,3.4-1.2,5.4-1.2c3.5,0,6.1,0.9,7.8,2.7c1.8,1.8,2.7,4.6,2.7,8.5v19.9h-8.4v-17.8
		c0-2.2-0.4-3.9-1.1-5s-1.9-1.7-3.5-1.7c-2,0-3.6,0.7-4.6,2.2c-1,1.5-1.5,3.8-1.5,6.9V493.7z"/>
</g>
</svg>
