<?xml version="1.0" encoding="utf-8"?>
<!-- Generator: Adobe Illustrator 23.1.0, SVG Export Plug-In . SVG Version: 6.00 Build 0)  -->
<svg version="1.1" id="Слой_1" xmlns="http://www.w3.org/2000/svg" xmlns:xlink="http://www.w3.org/1999/xlink" x="0px" y="0px"
	 viewBox="0 0 464 464" style="enable-background:new 0 0 464 464;" xml:space="preserve">
<style type="text/css">
	.st-vib0{fill:#1E1E1E;}
	.st-vib1{fill:#FFFFFF;}
	.st-vib2{fill:#987FF9;}
</style>
<title>Ресурс 1</title>
<g>
	<g id="Layer_1">
		<circle class="st-vib0" cx="232" cy="232" r="232"/>
		<path class="st-vib1" d="M337.3,203.2c0.3-43-36.2-82.3-81.5-87.8c-0.9-0.1-1.8-0.3-2.9-0.4c-2.3-0.4-4.6-0.7-6.9-0.8
			c-9.3,0-11.8,6.5-12.5,10.5c-0.7,3.9,0,6.9,1.8,9.4c3.1,4.2,8.4,4.9,12.9,5.5c1.3,0.2,2.5,0.3,3.5,0.6
			c40.7,9.1,54.4,23.4,61.1,63.8c0.2,1,0.3,2.2,0.3,3.5c0.3,4.8,0.9,14.9,11.7,14.9l0,0c1,0,1.9-0.1,2.8-0.3
			c10-1.5,9.7-10.7,9.6-15.1c-0.1-1.1-0.1-2.1,0-3.2C337.3,203.6,337.3,203.4,337.3,203.2z"/>
		<path class="st-vib1" d="M243.3,99.7c1.2,0.1,2.3,0.2,3.3,0.3c66.9,10.3,97.7,42,106.1,109.4c0.2,1.3,0.2,2.7,0.2,4
			c0.1,5.3,0.3,16.2,12,16.5h0.3c3.7,0,6.6-1.1,8.7-3.3c3.7-3.8,3.4-9.5,3.2-14.1c-0.1-1.1-0.1-2.2-0.1-3.1
			c0.8-68.9-58.8-131.4-127.7-133.8c-0.3,0-0.6,0-0.8,0s-0.6,0.1-0.8,0.1c-0.7,0-1.5-0.1-2.4-0.2c-1.1-0.1-2.3-0.2-3.5-0.2
			c-11,0-13,7.8-13.3,12.5C227.9,98.5,238.3,99.3,243.3,99.7z"/>
		<path class="st-vib1" d="M349.5,296.4c-1.4-1.1-2.9-2.2-4.3-3.3c-7.3-5.9-15-11.3-22.6-16.6c-1.6-1.1-3.1-2.2-4.7-3.3
			c-9.6-6.8-18.3-10-26.4-10c-11,0-20.6,6.1-28.5,18.1c-3.5,5.4-7.8,7.9-13,7.9c-3.7-0.2-7.2-1-10.5-2.6c-31-14-53.3-35.7-65.9-64.1
			c-6.1-13.8-4.2-22.7,6.6-30.1c6.1-4.2,17.6-11.9,16.7-26.8c-0.9-16.8-38-67.5-53.7-73.2c-6.7-2.4-14-2.4-20.7-0.1
			c-18,6.1-30.9,16.7-37.4,30.8c-6.2,13.5-5.9,29.5,0.8,46.1c19.6,47.8,47,89.6,81.6,124.1c33.9,33.8,75.5,61.4,123.7,82.2
			c3.9,1.6,8,2.8,12.2,3.7c1.2,0.3,2.1,0.5,2.8,0.7c0.4,0.1,0.8,0.2,1.2,0.2h0.4c22.7,0,49.9-20.7,58.3-44.4
			C373.7,314.8,360.3,304.6,349.5,296.4z"/>
		<path class="st-vib1" d="M253.4,154.4c-3.8,0.1-12,0.3-14.8,8.5c-1.3,3.8-1.2,7.2,0.5,9.9c2.4,4,7,5.3,11.2,5.9
			c15.2,2.4,23.1,10.9,24.6,26.5c0.8,7.3,5.6,12.4,12,12.4l0,0c0.5,0,0.9,0,1.4-0.1c7.6-0.9,11.3-6.4,11-16.6
			c0.1-10.5-5.4-22.5-14.7-31.9C275.1,159.7,263.6,154.1,253.4,154.4z"/>
		<path class="st-vib2" d="M443.6,464H288.8c-11.3,0-20.4-9.1-20.4-20.4v-32.2c0-11.3,9.1-20.4,20.4-20.4h154.8
			c11.3,0,20.4,9.1,20.4,20.4v32.2C464,454.9,454.9,464,443.6,464z"/>
		<g>
			<path class="st-vib1" d="M320.4,405.8h8.5l-13.6,39.9h-9.2l-13.5-39.9h8.5l7.5,23.7c0.4,1.4,0.9,3,1.3,4.9c0.4,1.9,0.7,3.2,0.8,3.9
				c0.2-1.7,0.9-4.6,2-8.8L320.4,405.8z"/>
			<path class="st-vib1" d="M332.9,407.3c0-2.7,1.5-4.1,4.5-4.1s4.5,1.4,4.5,4.1c0,1.3-0.4,2.3-1.1,3s-1.9,1.1-3.4,1.1
				C334.4,411.4,332.9,410.1,332.9,407.3z M341.6,445.7h-8.3v-30.5h8.3V445.7z"/>
			<path class="st-vib1" d="M367.3,414.7c3.6,0,6.4,1.4,8.5,4.2c2,2.8,3.1,6.7,3.1,11.6c0,5-1,8.9-3.2,11.7s-5,4.1-8.6,4.1
				c-3.6,0-6.4-1.3-8.4-3.9h-0.6l-1.4,3.4h-6.4v-42.5h8.3v9.9c0,1.3-0.1,3.3-0.3,6h0.3C360.6,416.2,363.5,414.7,367.3,414.7z
				 M364.6,421.3c-2.1,0-3.6,0.6-4.5,1.9c-0.9,1.3-1.4,3.4-1.5,6.3v0.9c0,3.3,0.5,5.6,1.5,7c1,1.4,2.5,2.1,4.6,2.1
				c1.7,0,3.1-0.8,4.1-2.4s1.5-3.9,1.5-6.9s-0.5-5.3-1.5-6.8C367.8,422.1,366.4,421.3,364.6,421.3z"/>
			<path class="st-vib1" d="M399.5,446.3c-4.9,0-8.8-1.4-11.5-4.1s-4.1-6.5-4.1-11.5c0-5.1,1.3-9.1,3.8-11.9c2.6-2.8,6.1-4.2,10.6-4.2
				c4.3,0,7.7,1.2,10.1,3.7s3.6,5.8,3.6,10.2v4h-19.7c0.1,2.4,0.8,4.2,2.1,5.5c1.3,1.3,3.1,2,5.5,2c1.8,0,3.6-0.2,5.2-0.6
				s3.3-1,5.1-1.8v6.4c-1.5,0.7-3,1.3-4.7,1.6C403.9,446.1,401.9,446.3,399.5,446.3z M398.3,420.6c-1.8,0-3.1,0.6-4.1,1.7
				c-1,1.1-1.6,2.7-1.7,4.8h11.7c0-2.1-0.6-3.6-1.6-4.8C401.5,421.1,400.1,420.6,398.3,420.6z"/>
			<path class="st-vib1" d="M435.7,414.7c1.1,0,2.1,0.1,2.8,0.2l-0.6,7.8c-0.7-0.2-1.5-0.3-2.5-0.3c-2.7,0-4.7,0.7-6.2,2
				c-1.5,1.4-2.2,3.3-2.2,5.7v15.5h-8.3v-30.5h6.3l1.2,5.1h0.4c0.9-1.7,2.2-3.1,3.8-4.1C432.1,415.2,433.9,414.7,435.7,414.7z"/>
		</g>
	</g>
</g>
</svg>
