<?xml version="1.0" encoding="utf-8"?>
<!-- Generator: Adobe Illustrator 23.1.0, SVG Export Plug-In . SVG Version: 6.00 Build 0)  -->
<svg version="1.1" id="Capa_1" xmlns="http://www.w3.org/2000/svg" xmlns:xlink="http://www.w3.org/1999/xlink" x="0px" y="0px"
	 viewBox="0 0 512 512" style="enable-background:new 0 0 512 512;" xml:space="preserve">
<style type="text/css">
	.st-in-0{fill:#1E1E1E;}
	.st-inst-1{fill:#25E47B;}
	.st-inst-2{fill:#FFFFFF;}
</style>
<g>
	<g>
		<g>
			<path class="st-in-0" d="M256.1,0H256C114.8,0,0,114.8,0,256c0,56,18,107.9,48.7,150l-31.9,95.1l98.4-31.5
				C155.7,496.5,204,512,256.1,512C397.2,512,512,397.2,512,256S397.2,0,256.1,0z M405,361.5c-6.2,17.4-30.7,31.9-50.2,36.1
				c-13.4,2.8-30.8,5.1-89.7-19.3c-75.2-31.2-123.7-107.6-127.5-112.6c-3.6-5-30.4-40.5-30.4-77.2s18.7-54.6,26.2-62.3
				c6.2-6.3,16.4-9.2,26.2-9.2c3.2,0,6,0.2,8.6,0.3c7.5,0.3,11.3,0.8,16.3,12.6c6.2,14.9,21.2,51.6,23,55.4
				c1.8,3.8,3.6,8.9,1.1,13.9c-2.4,5.1-4.5,7.4-8.3,11.7s-7.4,7.7-11.1,12.4c-3.5,4.1-7.4,8.4-3,15.9c4.4,7.4,19.4,31.9,41.5,51.6
				c28.6,25.4,51.7,33.6,60,37c6.2,2.6,13.5,2,18-2.8c5.7-6.2,12.8-16.4,20-26.5c5.1-7.2,11.6-8.1,18.4-5.6
				c6.9,2.4,43.5,20.5,51,24.2c7.5,3.8,12.5,5.6,14.3,8.7C411.2,329.2,411.2,344,405,361.5z"/>
		</g>
	</g>
</g>
<path class="st-inst-1" d="M490.6,511H219.4c-11.3,0-20.4-9.1-20.4-20.4v-32.2c0-11.3,9.1-20.4,20.4-20.4h271.2c11.3,0,20.4,9.1,20.4,20.4
	v32.2C511,501.8,501.9,511,490.6,511z"/>
<g>
	<path class="st-inst-2" d="M256.5,492.7h-9.6l-5.4-21c-0.2-0.7-0.5-2.3-1-4.6s-0.8-3.9-0.8-4.7c-0.1,1-0.4,2.6-0.8,4.7
		c-0.4,2.2-0.8,3.7-1,4.7l-5.4,20.9h-9.6l-10.2-39.9h8.3l5.1,21.8c0.9,4,1.5,7.5,1.9,10.5c0.1-1,0.4-2.6,0.8-4.8
		c0.4-2.2,0.8-3.9,1.1-5.1l5.8-22.4h8l5.8,22.4c0.3,1,0.6,2.5,1,4.6c0.4,2.1,0.7,3.8,0.9,5.3c0.2-1.4,0.5-3.2,0.9-5.3
		c0.4-2.1,0.8-3.8,1.1-5.1l5.1-21.8h8.3L256.5,492.7z"/>
	<path class="st-inst-2" d="M299.1,492.7h-8.3v-17.8c0-4.4-1.6-6.6-4.9-6.6c-2.3,0-4,0.8-5,2.4c-1,1.6-1.6,4.1-1.6,7.7v14.4H271v-42.5h8.3
		v8.7c0,0.7-0.1,2.3-0.2,4.7l-0.2,2.5h0.4c1.9-3,4.8-4.5,8.8-4.5c3.6,0,6.3,1,8.2,2.9c1.9,1.9,2.8,4.7,2.8,8.3V492.7z"/>
	<path class="st-inst-2" d="M327.1,492.7l-1.6-4.1h-0.2c-1.4,1.8-2.8,3-4.3,3.7s-3.4,1-5.8,1c-2.9,0-5.2-0.8-6.9-2.5
		c-1.7-1.7-2.5-4.1-2.5-7.2c0-3.2,1.1-5.6,3.4-7.2c2.3-1.5,5.7-2.4,10.2-2.6l5.3-0.2v-1.3c0-3.1-1.6-4.6-4.8-4.6
		c-2.4,0-5.3,0.7-8.6,2.2l-2.8-5.6c3.5-1.8,7.4-2.8,11.7-2.8c4.1,0,7.2,0.9,9.4,2.7c2.2,1.8,3.3,4.5,3.3,8.1v20.3H327.1z
		 M324.6,478.6l-3.2,0.1c-2.4,0.1-4.2,0.5-5.4,1.3c-1.2,0.8-1.8,2-1.8,3.7c0,2.3,1.3,3.5,4,3.5c1.9,0,3.5-0.6,4.6-1.7
		c1.2-1.1,1.7-2.6,1.7-4.4V478.6z"/>
	<path class="st-inst-2" d="M354.3,486.6c1.5,0,3.2-0.3,5.2-1v6.2c-2.1,0.9-4.6,1.4-7.6,1.4c-3.3,0-5.8-0.8-7.3-2.5
		c-1.5-1.7-2.3-4.2-2.3-7.6v-14.7h-4v-3.5l4.6-2.8l2.4-6.4h5.3v6.5h8.5v6.2h-8.5v14.7c0,1.2,0.3,2.1,1,2.6S353.2,486.6,354.3,486.6z
		"/>
	<path class="st-inst-2" d="M387,483.6c0,3.1-1.1,5.5-3.3,7.2c-2.2,1.6-5.4,2.5-9.8,2.5c-2.2,0-4.1-0.2-5.7-0.5c-1.6-0.3-3-0.7-4.4-1.3
		v-6.9c1.5,0.7,3.3,1.3,5.2,1.8c1.9,0.5,3.6,0.7,5.1,0.7c3,0,4.5-0.9,4.5-2.6c0-0.7-0.2-1.2-0.6-1.6c-0.4-0.4-1.1-0.9-2.1-1.4
		s-2.3-1.1-3.9-1.8c-2.3-1-4.1-1.9-5.2-2.7c-1.1-0.8-1.9-1.8-2.4-2.9c-0.5-1.1-0.8-2.4-0.8-4c0-2.7,1.1-4.8,3.2-6.3
		c2.1-1.5,5.1-2.2,8.9-2.2c3.7,0,7.2,0.8,10.7,2.4l-2.5,6c-1.5-0.7-3-1.2-4.3-1.6c-1.3-0.4-2.7-0.6-4.1-0.6c-2.5,0-3.7,0.7-3.7,2
		c0,0.7,0.4,1.4,1.2,1.9c0.8,0.5,2.5,1.4,5.2,2.4c2.4,1,4.1,1.9,5.2,2.7c1.1,0.8,1.9,1.8,2.5,2.9C386.8,480.8,387,482.1,387,483.6z"
		/>
	<path class="st-inst-2" d="M418.6,492.7l-2.9-9.5h-14.5l-2.9,9.5h-9.1l14.1-40.1h10.3l14.1,40.1H418.6z M413.7,476.1
		c-2.7-8.6-4.2-13.5-4.5-14.6c-0.3-1.1-0.6-2-0.7-2.7c-0.6,2.3-2.3,8.1-5.2,17.3H413.7z"/>
	<path class="st-inst-2" d="M448.8,493.2c-3.6,0-6.4-1.3-8.4-3.9H440c0.3,2.5,0.4,4,0.4,4.4v12.4h-8.3v-43.9h6.8l1.2,4h0.4
		c1.9-3,4.8-4.5,8.7-4.5c3.6,0,6.4,1.4,8.5,4.2c2,2.8,3.1,6.6,3.1,11.6c0,3.3-0.5,6.1-1.4,8.5c-1,2.4-2.3,4.2-4.1,5.5
		C453.3,492.6,451.2,493.2,448.8,493.2z M446.4,468.3c-2.1,0-3.6,0.6-4.5,1.9c-0.9,1.3-1.4,3.4-1.5,6.3v0.9c0,3.3,0.5,5.6,1.5,7
		c1,1.4,2.5,2.1,4.6,2.1c3.7,0,5.6-3.1,5.6-9.2c0-3-0.5-5.3-1.4-6.8S448.3,468.3,446.4,468.3z"/>
	<path class="st-inst-2" d="M484.2,493.2c-3.6,0-6.4-1.3-8.4-3.9h-0.4c0.3,2.5,0.4,4,0.4,4.4v12.4h-8.3v-43.9h6.8l1.2,4h0.4
		c1.9-3,4.8-4.5,8.7-4.5c3.6,0,6.4,1.4,8.5,4.2c2,2.8,3.1,6.6,3.1,11.6c0,3.3-0.5,6.1-1.4,8.5c-1,2.4-2.3,4.2-4.1,5.5
		C488.7,492.6,486.6,493.2,484.2,493.2z M481.7,468.3c-2.1,0-3.6,0.6-4.5,1.9c-0.9,1.3-1.4,3.4-1.5,6.3v0.9c0,3.3,0.5,5.6,1.5,7
		c1,1.4,2.5,2.1,4.6,2.1c3.7,0,5.6-3.1,5.6-9.2c0-3-0.5-5.3-1.4-6.8S483.7,468.3,481.7,468.3z"/>
</g>
</svg>
